<?xml version="1.0" standalone="no"?>
<!DOCTYPE svg PUBLIC "-//W3C//DTD SVG 20010904//EN"
 "http://www.w3.org/TR/2001/REC-SVG-20010904/DTD/svg10.dtd">
<svg version="1.0" xmlns="http://www.w3.org/2000/svg"
 width="300.000000pt" height="170.000000pt" viewBox="0 0 300.000000 170.000000"
 preserveAspectRatio="xMidYMid meet">
<metadata>
Created by potrace 1.10, written by Peter Selinger 2001-2011
</metadata>
<g transform="translate(0.000000,170.000000) scale(0.100000,-0.100000)"
fill="#000000" stroke="none">
<path d="M1267 1246 l-48 -11 -2 -393 -2 -392 68 0 68 0 -2 96 c-2 92 -1 96
27 125 15 16 31 28 36 27 4 -2 43 -58 87 -125 l80 -123 76 0 c41 0 75 2 75 4
0 3 -52 82 -115 177 l-114 172 94 102 c52 56 95 105 95 109 0 4 -35 6 -77 4
l-76 -3 -91 -107 c-50 -58 -93 -107 -96 -107 -3 -1 -4 102 -2 229 4 260 12
238 -81 216z m35 -236 c4 -166 7 -192 23 -210 10 -11 26 -20 36 -20 9 0 57 43
106 96 63 68 94 95 108 93 15 -3 9 -15 -37 -69 -30 -36 -58 -76 -62 -88 -8
-25 17 -73 121 -226 35 -50 51 -82 45 -88 -21 -21 -49 6 -117 107 -38 57 -79
109 -91 116 -34 17 -68 4 -98 -39 -21 -31 -26 -49 -26 -98 0 -62 -18 -103 -38
-90 -13 8 -18 687 -5 699 26 26 31 1 35 -183z"/>
<path d="M945 1215 c-51 -50 -20 -129 50 -129 45 0 75 31 75 76 0 36 -40 78
-75 78 -14 0 -37 -11 -50 -25z m79 -41 c7 -19 -10 -44 -31 -44 -17 0 -27 24
-19 45 7 20 42 19 50 -1z"/>
<path d="M1861 1216 c-48 -51 -2 -149 63 -132 63 16 86 87 41 131 -31 32 -74
33 -104 1z m74 -56 c0 -18 -6 -26 -21 -28 -23 -3 -37 18 -27 44 10 25 48 13
48 -16z"/>
<path d="M230 840 l0 -390 70 0 70 0 0 108 0 109 41 57 c23 32 44 54 48 49 4
-4 54 -79 110 -165 l104 -158 85 0 85 0 -20 23 c-43 47 -274 410 -269 423 4
11 193 277 229 322 7 9 -8 12 -70 12 l-79 0 -129 -185 c-72 -101 -132 -184
-135 -185 -3 0 -4 83 -2 185 l4 185 -71 0 -71 0 0 -390z m94 323 c2 -10 4 -75
4 -144 0 -139 4 -164 32 -179 27 -14 62 21 159 160 115 162 129 180 151 180
11 0 20 -5 20 -11 0 -7 -40 -68 -90 -137 -49 -69 -90 -132 -90 -142 0 -16 68
-126 184 -299 57 -85 61 -108 15 -96 -17 5 -52 48 -117 149 -52 78 -103 148
-114 155 -30 19 -56 4 -104 -61 -44 -60 -44 -61 -44 -143 0 -61 -4 -86 -15
-95 -12 -10 -18 -10 -30 0 -13 11 -15 60 -15 330 0 175 3 325 6 334 8 21 41
20 48 -1z"/>
<path d="M2126 1193 c2 -21 6 -73 10 -115 l6 -78 49 0 49 0 1 38 c0 36 5 94
14 160 l4 32 -69 0 -68 0 4 -37z m79 -23 c9 -15 -6 -121 -16 -115 -11 7 -23
91 -15 110 6 17 22 20 31 5z"/>
<path d="M850 965 l0 -55 40 0 41 0 -3 -230 -3 -230 68 0 67 0 0 285 0 285
-105 0 -105 0 0 -55z m164 -11 c9 -24 7 -437 -2 -452 -5 -7 -16 -10 -25 -6
-15 5 -17 28 -17 196 0 200 -3 214 -49 254 l-26 23 56 1 c43 0 58 -4 63 -16z"/>
<path d="M1770 965 l0 -55 38 0 37 0 -3 -230 -3 -230 70 0 71 0 0 285 0 285
-105 0 -105 0 0 -55z m160 -229 c0 -129 -4 -237 -8 -240 -4 -2 -14 -1 -22 4
-12 8 -16 48 -18 209 -3 196 -4 199 -28 222 -13 12 -24 26 -24 31 0 4 23 8 50
8 l50 0 0 -234z"/>
<path d="M2434 1001 c-73 -33 -104 -95 -84 -169 13 -51 60 -93 148 -132 36
-17 74 -38 84 -47 25 -22 24 -79 -1 -93 -31 -16 -104 -12 -146 10 -21 11 -40
18 -42 16 -2 -1 -14 -24 -27 -50 l-24 -47 37 -15 c158 -67 335 -16 357 102 17
93 -23 149 -157 214 -80 38 -94 49 -97 72 -6 54 78 76 151 39 35 -18 39 -18
44 -3 3 9 12 32 20 51 7 19 12 35 11 36 -2 2 -25 10 -51 19 -65 22 -171 20
-223 -3z m199 -40 c8 -8 -8 -9 -56 -4 -66 6 -66 6 -102 -30 -65 -65 -39 -114
98 -181 102 -50 122 -72 122 -137 0 -48 -29 -88 -76 -105 -68 -25 -209 -13
-209 17 0 7 7 8 18 4 9 -5 46 -10 82 -12 62 -5 66 -3 98 27 66 66 33 135 -94
197 -41 20 -86 49 -99 65 -49 58 -23 146 48 168 39 12 155 6 170 -9z"/>
</g>
</svg>
